<svg width="163" height="44" viewBox="0 0 163 44" fill="none" xmlns="http://www.w3.org/2000/svg">
<path d="M0.860409 5.76C1.44041 5.78 2.20041 5.8 3.14041 5.82C4.10041 5.84 5.06041 5.85 6.02041 5.85C7.02041 5.85 7.98041 5.84 8.90041 5.82C9.82041 5.8 10.4704 5.79 10.8504 5.79C13.8904 5.79 16.1504 6.34 17.6304 7.44C19.1304 8.54 19.8804 9.96 19.8804 11.7C19.8804 12.42 19.7304 13.18 19.4304 13.98C19.1304 14.76 18.6204 15.49 17.9004 16.17C17.1804 16.83 16.1904 17.37 14.9304 17.79C13.6904 18.21 12.1104 18.42 10.1904 18.42H7.01041V17.82H9.89041C10.9104 17.82 11.6804 17.55 12.2004 17.01C12.7404 16.47 13.1004 15.76 13.2804 14.88C13.4804 14 13.5804 13.05 13.5804 12.03C13.5804 10.13 13.3604 8.71 12.9204 7.77C12.5004 6.83 11.7604 6.36 10.7004 6.36C10.0204 6.36 9.58041 6.53 9.38041 6.87C9.18041 7.21 9.08041 7.9 9.08041 8.94V23.52C9.08041 24.34 9.16041 24.95 9.32041 25.35C9.50041 25.75 9.83041 26.01 10.3104 26.13C10.7904 26.25 11.4904 26.31 12.4104 26.31V27C11.7304 26.98 10.8404 26.96 9.74041 26.94C8.64041 26.92 7.47041 26.91 6.23041 26.91C5.31041 26.91 4.39041 26.92 3.47041 26.94C2.55041 26.96 1.68041 26.98 0.860409 27V26.4C1.48041 26.36 1.94041 26.28 2.24041 26.16C2.54041 26.04 2.74041 25.8 2.84041 25.44C2.94041 25.08 2.99041 24.54 2.99041 23.82V8.94C2.99041 8.2 2.94041 7.66 2.84041 7.32C2.74041 6.96 2.53041 6.72 2.21041 6.6C1.91041 6.46 1.46041 6.38 0.860409 6.36V5.76ZM32.0224 5.34C34.2824 5.34 36.2624 5.77 37.9624 6.63C39.6624 7.49 40.9824 8.73 41.9224 10.35C42.8624 11.95 43.3324 13.9 43.3324 16.2C43.3324 18.44 42.8524 20.4 41.8924 22.08C40.9324 23.76 39.5924 25.07 37.8724 26.01C36.1724 26.95 34.2124 27.42 31.9924 27.42C29.7324 27.42 27.7524 26.99 26.0524 26.13C24.3524 25.27 23.0324 24.03 22.0924 22.41C21.1524 20.79 20.6824 18.84 20.6824 16.56C20.6824 14.32 21.1624 12.36 22.1224 10.68C23.1024 9 24.4424 7.69 26.1424 6.75C27.8424 5.81 29.8024 5.34 32.0224 5.34ZM31.9024 5.88C30.9024 5.88 30.0324 6.33 29.2924 7.23C28.5524 8.13 27.9824 9.37 27.5824 10.95C27.1824 12.53 26.9824 14.36 26.9824 16.44C26.9824 18.56 27.2124 20.41 27.6724 21.99C28.1324 23.55 28.7524 24.76 29.5324 25.62C30.3124 26.46 31.1724 26.88 32.1124 26.88C33.1124 26.88 33.9824 26.43 34.7224 25.53C35.4624 24.63 36.0324 23.39 36.4324 21.81C36.8324 20.21 37.0324 18.38 37.0324 16.32C37.0324 14.18 36.8024 12.33 36.3424 10.77C35.8824 9.21 35.2624 8.01 34.4824 7.17C33.7024 6.31 32.8424 5.88 31.9024 5.88ZM44.2725 5.76C44.8525 5.78 45.6125 5.8 46.5525 5.82C47.5125 5.84 48.4725 5.85 49.4325 5.85C50.4325 5.85 51.3925 5.84 52.3125 5.82C53.2325 5.8 53.8825 5.79 54.2625 5.79C56.3025 5.79 57.9825 5.98 59.3025 6.36C60.6425 6.74 61.6425 7.32 62.3025 8.1C62.9625 8.86 63.2925 9.83 63.2925 11.01C63.2925 11.75 63.1425 12.47 62.8425 13.17C62.5425 13.87 62.0325 14.51 61.3125 15.09C60.5925 15.65 59.6025 16.1 58.3425 16.44C57.1025 16.76 55.5225 16.92 53.6025 16.92H50.7225V16.32H53.3025C54.3225 16.32 55.0925 16.1 55.6125 15.66C56.1525 15.2 56.5125 14.6 56.6925 13.86C56.8925 13.1 56.9925 12.26 56.9925 11.34C56.9925 9.76 56.7725 8.54 56.3325 7.68C55.9125 6.8 55.1725 6.36 54.1125 6.36C53.4325 6.36 52.9925 6.53 52.7925 6.87C52.5925 7.21 52.4925 7.9 52.4925 8.94V23.82C52.4925 24.54 52.5425 25.08 52.6425 25.44C52.7625 25.8 52.9725 26.04 53.2725 26.16C53.5725 26.28 54.0225 26.36 54.6225 26.4V27C54.0425 26.96 53.2925 26.94 52.3725 26.94C51.4725 26.92 50.5525 26.91 49.6125 26.91C48.5325 26.91 47.5125 26.92 46.5525 26.94C45.6125 26.94 44.8525 26.96 44.2725 27V26.4C44.8925 26.36 45.3525 26.28 45.6525 26.16C45.9525 26.04 46.1525 25.8 46.2525 25.44C46.3525 25.08 46.4025 24.54 46.4025 23.82V8.94C46.4025 8.2 46.3525 7.66 46.2525 7.32C46.1525 6.96 45.9425 6.72 45.6225 6.6C45.3225 6.46 44.8725 6.38 44.2725 6.36V5.76ZM50.5425 16.41C51.2625 16.43 51.9425 16.47 52.5825 16.53C53.2225 16.59 53.8125 16.65 54.3525 16.71C54.8925 16.75 55.3525 16.78 55.7325 16.8C57.8725 16.9 59.4725 17.27 60.5325 17.91C61.6125 18.55 62.2725 19.49 62.5125 20.73L63.1425 23.85C63.3025 24.59 63.4825 25.1 63.6825 25.38C63.8825 25.66 64.1525 25.8 64.4925 25.8C64.6925 25.8 64.8625 25.77 65.0025 25.71C65.1425 25.65 65.2825 25.55 65.4225 25.41L65.8125 25.8C65.1925 26.42 64.5125 26.84 63.7725 27.06C63.0525 27.3 62.2325 27.42 61.3125 27.42C60.0125 27.42 58.9625 27.19 58.1625 26.73C57.3625 26.25 56.8725 25.4 56.6925 24.18L56.2425 21.18C56.1225 20.36 55.9725 19.63 55.7925 18.99C55.6125 18.35 55.3725 17.85 55.0725 17.49C54.7725 17.11 54.3625 16.92 53.8425 16.92H50.6025L50.5425 16.41ZM84.5836 5.76C84.5036 6.94 84.4436 8.08 84.4036 9.18C84.3836 10.28 84.3736 11.12 84.3736 11.7C84.3736 12.12 84.3836 12.52 84.4036 12.9C84.4236 13.28 84.4436 13.6 84.4636 13.86H83.7736C83.3136 11.98 82.7536 10.5 82.0936 9.42C81.4536 8.34 80.7636 7.58 80.0236 7.14C79.3036 6.68 78.5836 6.45 77.8636 6.45H77.8336V23.61C77.8336 24.43 77.9136 25.04 78.0736 25.44C78.2536 25.84 78.5836 26.1 79.0636 26.22C79.5436 26.34 80.2436 26.4 81.1636 26.4V27C80.4636 26.98 79.5136 26.96 78.3136 26.94C77.1336 26.92 75.8936 26.91 74.5936 26.91C73.3536 26.91 72.1836 26.92 71.0836 26.94C69.9836 26.96 69.0936 26.98 68.4136 27V26.4C69.3336 26.4 70.0336 26.34 70.5136 26.22C70.9936 26.1 71.3136 25.84 71.4736 25.44C71.6536 25.04 71.7436 24.43 71.7436 23.61V6.45H71.7136C70.9936 6.45 70.2636 6.68 69.5236 7.14C68.8036 7.58 68.1236 8.34 67.4836 9.42C66.8436 10.48 66.2836 11.96 65.8036 13.86H65.1136C65.1536 13.6 65.1736 13.28 65.1736 12.9C65.1936 12.52 65.2036 12.12 65.2036 11.7C65.2036 11.12 65.1836 10.28 65.1436 9.18C65.1236 8.08 65.0736 6.94 64.9936 5.76C65.9536 5.78 67.0136 5.8 68.1736 5.82C69.3336 5.84 70.4936 5.85 71.6536 5.85C72.8136 5.85 73.8636 5.85 74.8036 5.85C75.7436 5.85 76.7936 5.85 77.9536 5.85C79.1136 5.85 80.2736 5.84 81.4336 5.82C82.5936 5.8 83.6436 5.78 84.5836 5.76ZM94.5366 5.76L101.797 24.48C102.077 25.16 102.377 25.65 102.697 25.95C103.017 26.23 103.307 26.38 103.567 26.4V27C102.847 26.96 102.007 26.94 101.047 26.94C100.087 26.92 99.1066 26.91 98.1066 26.91C97.0866 26.91 96.1266 26.92 95.2266 26.94C94.3266 26.94 93.6066 26.96 93.0666 27V26.4C94.0866 26.36 94.7266 26.19 94.9866 25.89C95.2666 25.57 95.2066 24.9 94.8066 23.88L90.0066 10.59L90.6066 9.54L86.4666 20.31C85.9666 21.61 85.6566 22.66 85.5366 23.46C85.4366 24.24 85.4866 24.84 85.6866 25.26C85.8866 25.68 86.2066 25.97 86.6466 26.13C87.0866 26.29 87.6066 26.38 88.2066 26.4V27C87.4666 26.96 86.7966 26.94 86.1966 26.94C85.6166 26.92 84.9766 26.91 84.2766 26.91C83.8966 26.91 83.4866 26.92 83.0466 26.94C82.6266 26.94 82.2666 26.96 81.9666 27V26.4C82.4266 26.32 82.8766 26.03 83.3166 25.53C83.7766 25.01 84.2466 24.13 84.7266 22.89L91.3866 5.76C91.8666 5.8 92.3866 5.82 92.9466 5.82C93.5266 5.82 94.0566 5.8 94.5366 5.76ZM95.5866 18.36V18.96H86.6466L86.9466 18.36H95.5866ZM113.522 5.76V6.36C112.842 6.38 112.322 6.46 111.962 6.6C111.622 6.72 111.392 6.96 111.272 7.32C111.152 7.66 111.092 8.2 111.092 8.94V24.42C111.092 24.96 111.132 25.37 111.212 25.65C111.292 25.91 111.442 26.09 111.662 26.19C111.882 26.27 112.202 26.31 112.622 26.31H113.612C114.132 26.31 114.692 26.11 115.292 25.71C115.892 25.31 116.472 24.76 117.032 24.06C117.612 23.36 118.112 22.57 118.532 21.69C118.952 20.79 119.252 19.86 119.432 18.9H120.122C120.062 19.62 120.032 20.54 120.032 21.66C120.032 22.18 120.042 22.94 120.062 23.94C120.082 24.92 120.142 25.94 120.242 27C119.222 26.96 118.072 26.94 116.792 26.94C115.512 26.92 114.372 26.91 113.372 26.91C112.832 26.91 112.142 26.91 111.302 26.91C110.482 26.91 109.582 26.92 108.602 26.94C107.642 26.94 106.662 26.95 105.662 26.97C104.682 26.97 103.752 26.98 102.872 27V26.4C103.492 26.36 103.952 26.28 104.252 26.16C104.552 26.04 104.752 25.8 104.852 25.44C104.952 25.08 105.002 24.54 105.002 23.82V8.94C105.002 8.2 104.952 7.66 104.852 7.32C104.752 6.96 104.542 6.72 104.222 6.6C103.922 6.46 103.472 6.38 102.872 6.36V5.76C103.452 5.78 104.212 5.8 105.152 5.82C106.112 5.84 107.132 5.85 108.212 5.85C109.212 5.85 110.192 5.84 111.152 5.82C112.112 5.8 112.902 5.78 113.522 5.76Z" fill="#111827"/>
<path d="M120.901 5.76C121.481 5.78 122.241 5.8 123.181 5.82C124.141 5.84 125.101 5.85 126.061 5.85C127.061 5.85 128.021 5.84 128.941 5.82C129.861 5.8 130.511 5.79 130.891 5.79C133.631 5.79 135.671 6.23 137.011 7.11C138.351 7.99 139.021 9.12 139.021 10.5C139.021 11.2 138.771 11.93 138.271 12.69C137.771 13.43 137.011 14.09 135.991 14.67C134.971 15.23 133.671 15.61 132.091 15.81V15.87C134.151 15.97 135.801 16.29 137.041 16.83C138.281 17.37 139.181 18.03 139.741 18.81C140.301 19.57 140.581 20.36 140.581 21.18C140.581 22.52 140.221 23.62 139.501 24.48C138.781 25.34 137.741 25.98 136.381 26.4C135.041 26.8 133.441 27 131.581 27C131.101 27 130.391 26.99 129.451 26.97C128.531 26.93 127.421 26.91 126.121 26.91C125.121 26.91 124.141 26.92 123.181 26.94C122.241 26.94 121.481 26.96 120.901 27V26.4C121.521 26.36 121.981 26.28 122.281 26.16C122.581 26.04 122.781 25.8 122.881 25.44C122.981 25.08 123.031 24.54 123.031 23.82V8.94C123.031 8.2 122.981 7.66 122.881 7.32C122.781 6.96 122.571 6.72 122.251 6.6C121.951 6.46 121.501 6.38 120.901 6.36V5.76ZM130.741 6.36C130.061 6.36 129.621 6.53 129.421 6.87C129.221 7.21 129.121 7.9 129.121 8.94V23.82C129.121 24.52 129.171 25.05 129.271 25.41C129.371 25.77 129.561 26.01 129.841 26.13C130.121 26.25 130.531 26.31 131.071 26.31C132.191 26.31 133.001 25.86 133.501 24.96C134.021 24.04 134.281 22.74 134.281 21.06C134.281 19.52 133.911 18.33 133.171 17.49C132.451 16.65 131.241 16.23 129.541 16.23H127.351C127.351 16.23 127.351 16.15 127.351 15.99C127.351 15.81 127.351 15.72 127.351 15.72H129.931C130.711 15.72 131.311 15.5 131.731 15.06C132.151 14.6 132.441 14 132.601 13.26C132.761 12.5 132.841 11.69 132.841 10.83C132.841 9.35 132.681 8.24 132.361 7.5C132.041 6.74 131.501 6.36 130.741 6.36ZM141.274 5.76C141.854 5.78 142.614 5.8 143.554 5.82C144.514 5.84 145.474 5.85 146.434 5.85C147.434 5.85 148.394 5.84 149.314 5.82C150.234 5.8 150.884 5.79 151.264 5.79C153.304 5.79 154.984 5.98 156.304 6.36C157.644 6.74 158.644 7.32 159.304 8.1C159.964 8.86 160.294 9.83 160.294 11.01C160.294 11.75 160.144 12.47 159.844 13.17C159.544 13.87 159.034 14.51 158.314 15.09C157.594 15.65 156.604 16.1 155.344 16.44C154.104 16.76 152.524 16.92 150.604 16.92H147.724V16.32H150.304C151.324 16.32 152.094 16.1 152.614 15.66C153.154 15.2 153.514 14.6 153.694 13.86C153.894 13.1 153.994 12.26 153.994 11.34C153.994 9.76 153.774 8.54 153.334 7.68C152.914 6.8 152.174 6.36 151.114 6.36C150.434 6.36 149.994 6.53 149.794 6.87C149.594 7.21 149.494 7.9 149.494 8.94V23.82C149.494 24.54 149.544 25.08 149.644 25.44C149.764 25.8 149.974 26.04 150.274 26.16C150.574 26.28 151.024 26.36 151.624 26.4V27C151.044 26.96 150.294 26.94 149.374 26.94C148.474 26.92 147.554 26.91 146.614 26.91C145.534 26.91 144.514 26.92 143.554 26.94C142.614 26.94 141.854 26.96 141.274 27V26.4C141.894 26.36 142.354 26.28 142.654 26.16C142.954 26.04 143.154 25.8 143.254 25.44C143.354 25.08 143.404 24.54 143.404 23.82V8.94C143.404 8.2 143.354 7.66 143.254 7.32C143.154 6.96 142.944 6.72 142.624 6.6C142.324 6.46 141.874 6.38 141.274 6.36V5.76ZM147.544 16.41C148.264 16.43 148.944 16.47 149.584 16.53C150.224 16.59 150.814 16.65 151.354 16.71C151.894 16.75 152.354 16.78 152.734 16.8C154.874 16.9 156.474 17.27 157.534 17.91C158.614 18.55 159.274 19.49 159.514 20.73L160.144 23.85C160.304 24.59 160.484 25.1 160.684 25.38C160.884 25.66 161.154 25.8 161.494 25.8C161.694 25.8 161.864 25.77 162.004 25.71C162.144 25.65 162.284 25.55 162.424 25.41L162.814 25.8C162.194 26.42 161.514 26.84 160.774 27.06C160.054 27.3 159.234 27.42 158.314 27.42C157.014 27.42 155.964 27.19 155.164 26.73C154.364 26.25 153.874 25.4 153.694 24.18L153.244 21.18C153.124 20.36 152.974 19.63 152.794 18.99C152.614 18.35 152.374 17.85 152.074 17.49C151.774 17.11 151.364 16.92 150.844 16.92H147.604L147.544 16.41Z" fill="#E63329"/>
<path d="M8.47199 40V34.096H9.291L11.388 37.768C11.502 37.966 11.61 38.173 11.712 38.389C11.814 38.599 11.916 38.815 12.018 39.037H12.054C12.036 38.731 12.015 38.419 11.991 38.101C11.967 37.777 11.955 37.465 11.955 37.165V34.096H12.675V40H11.856L9.759 36.328C9.65099 36.13 9.53999 35.923 9.426 35.707C9.31799 35.491 9.21599 35.275 9.11999 35.059H9.08399C9.10799 35.353 9.12899 35.656 9.14699 35.968C9.171 36.28 9.183 36.595 9.183 36.913V40H8.47199ZM18.7271 40.108C18.2351 40.108 17.7971 39.982 17.4131 39.73C17.0351 39.478 16.7381 39.121 16.5221 38.659C16.3121 38.197 16.2071 37.651 16.2071 37.021C16.2071 36.391 16.3121 35.851 16.5221 35.401C16.7381 34.945 17.0351 34.597 17.4131 34.357C17.7971 34.111 18.2351 33.988 18.7271 33.988C19.2251 33.988 19.6631 34.111 20.0411 34.357C20.4191 34.597 20.7161 34.945 20.9321 35.401C21.1481 35.851 21.2561 36.391 21.2561 37.021C21.2561 37.651 21.1481 38.197 20.9321 38.659C20.7161 39.121 20.4191 39.478 20.0411 39.73C19.6631 39.982 19.2251 40.108 18.7271 40.108ZM18.7271 39.442C19.0811 39.442 19.3871 39.343 19.6451 39.145C19.9091 38.947 20.1131 38.668 20.2571 38.308C20.4011 37.942 20.4731 37.513 20.4731 37.021C20.4731 36.535 20.4011 36.115 20.2571 35.761C20.1131 35.407 19.9091 35.134 19.6451 34.942C19.3871 34.744 19.0811 34.645 18.7271 34.645C18.3791 34.645 18.0731 34.744 17.8091 34.942C17.5451 35.134 17.3411 35.407 17.1971 35.761C17.0531 36.115 16.9811 36.535 16.9811 37.021C16.9811 37.513 17.0531 37.942 17.1971 38.308C17.3411 38.668 17.5451 38.947 17.8091 39.145C18.0731 39.343 18.3791 39.442 18.7271 39.442ZM25.7888 40V34.735H24.0068V34.096H28.3268V34.735H26.5448V40H25.7888ZM31.64 40V34.096H32.387V40H31.64ZM31.325 33.646L32.513 32.431H33.422L33.458 32.512L31.991 33.646H31.325ZM38.4952 40.108C38.0032 40.108 37.5592 39.988 37.1632 39.748C36.7732 39.502 36.4672 39.151 36.2452 38.695C36.0232 38.239 35.9122 37.69 35.9122 37.048C35.9122 36.574 35.9752 36.148 36.1012 35.77C36.2332 35.392 36.4192 35.071 36.6592 34.807C36.8992 34.537 37.1752 34.333 37.4872 34.195C37.8052 34.057 38.1532 33.988 38.5312 33.988C38.8852 33.988 39.2002 34.06 39.4762 34.204C39.7582 34.348 39.9832 34.519 40.1512 34.717L39.7462 35.176C39.5902 35.008 39.4102 34.879 39.2062 34.789C39.0082 34.693 38.7862 34.645 38.5402 34.645C38.1742 34.645 37.8502 34.744 37.5682 34.942C37.2922 35.134 37.0762 35.41 36.9202 35.77C36.7642 36.124 36.6862 36.544 36.6862 37.03C36.6862 37.528 36.7612 37.957 36.9112 38.317C37.0612 38.677 37.2772 38.956 37.5592 39.154C37.8412 39.346 38.1712 39.442 38.5492 39.442C38.8252 39.442 39.0712 39.391 39.2872 39.289C39.5092 39.181 39.7102 39.025 39.8902 38.821L40.2862 39.262C40.0522 39.532 39.7912 39.742 39.5032 39.892C39.2152 40.036 38.8792 40.108 38.4952 40.108ZM43.6458 40V34.096H44.3928V40H43.6458ZM47.4771 40L49.4751 34.096H50.3211L52.3191 40H51.5271L50.4921 36.697C50.3841 36.367 50.2821 36.04 50.1861 35.716C50.0901 35.386 49.9941 35.05 49.8981 34.708H49.8621C49.7721 35.05 49.6791 35.386 49.5831 35.716C49.4871 36.04 49.3851 36.367 49.2771 36.697L48.2331 40H47.4771ZM48.5211 38.2V37.606H51.2481V38.2H48.5211ZM57.0348 40.108C56.6148 40.108 56.2308 40.03 55.8828 39.874C55.5348 39.712 55.2288 39.496 54.9648 39.226L55.3878 38.74C55.5978 38.962 55.8468 39.136 56.1348 39.262C56.4288 39.388 56.7318 39.451 57.0438 39.451C57.4338 39.451 57.7368 39.364 57.9528 39.19C58.1688 39.01 58.2768 38.776 58.2768 38.488C58.2768 38.284 58.2318 38.122 58.1418 38.002C58.0578 37.882 57.9408 37.78 57.7908 37.696C57.6468 37.612 57.4818 37.528 57.2958 37.444L56.4498 37.075C56.2578 36.991 56.0688 36.886 55.8828 36.76C55.7028 36.634 55.5528 36.475 55.4328 36.283C55.3128 36.085 55.2528 35.842 55.2528 35.554C55.2528 35.254 55.3308 34.987 55.4868 34.753C55.6488 34.513 55.8678 34.327 56.1438 34.195C56.4258 34.057 56.7468 33.988 57.1068 33.988C57.4668 33.988 57.7968 34.054 58.0968 34.186C58.3968 34.318 58.6488 34.489 58.8528 34.699L58.4478 35.185C58.2618 35.023 58.0578 34.894 57.8358 34.798C57.6138 34.696 57.3708 34.645 57.1068 34.645C56.7768 34.645 56.5098 34.723 56.3058 34.879C56.1078 35.035 56.0088 35.245 56.0088 35.509C56.0088 35.695 56.0568 35.848 56.1528 35.968C56.2488 36.088 56.3718 36.187 56.5218 36.265C56.6778 36.343 56.8338 36.418 56.9898 36.49L57.8268 36.85C58.0608 36.952 58.2678 37.069 58.4478 37.201C58.6338 37.333 58.7778 37.498 58.8798 37.696C58.9878 37.894 59.0418 38.137 59.0418 38.425C59.0418 38.737 58.9608 39.022 58.7988 39.28C58.6428 39.532 58.4118 39.733 58.1058 39.883C57.8058 40.033 57.4488 40.108 57.0348 40.108ZM66.5062 40V34.096H69.9082V34.726H67.2532V36.58H69.4942V37.219H67.2532V39.361H69.9982V40H66.5062ZM73.5023 40V34.096H74.4473L75.5633 37.255C75.6353 37.453 75.7013 37.651 75.7613 37.849C75.8273 38.047 75.8933 38.257 75.9593 38.479H75.9953C76.0613 38.257 76.1243 38.047 76.1843 37.849C76.2443 37.651 76.3073 37.453 76.3733 37.255L77.4893 34.096H78.4253V40H77.7233V36.751C77.7233 36.577 77.7293 36.382 77.7413 36.166C77.7533 35.95 77.7653 35.737 77.7773 35.527C77.7953 35.311 77.8133 35.116 77.8313 34.942H77.7953L77.3363 36.364L76.2293 39.415H75.6803L74.5733 36.364L74.1143 34.942H74.0783C74.0963 35.116 74.1113 35.311 74.1233 35.527C74.1413 35.737 74.1563 35.95 74.1683 36.166C74.1803 36.382 74.1863 36.577 74.1863 36.751V40H73.5023ZM87.5671 40V34.735H85.7851V34.096H90.1051V34.735H88.3231V40H87.5671ZM93.4183 40V34.096H96.8203V34.726H94.1653V36.58H96.4063V37.219H94.1653V39.361H96.9103V40H93.4183ZM100.414 40V34.096H101.359L102.475 37.255C102.547 37.453 102.613 37.651 102.673 37.849C102.739 38.047 102.805 38.257 102.871 38.479H102.907C102.973 38.257 103.036 38.047 103.096 37.849C103.156 37.651 103.219 37.453 103.285 37.255L104.401 34.096H105.337V40H104.635V36.751C104.635 36.577 104.641 36.382 104.653 36.166C104.665 35.95 104.677 35.737 104.689 35.527C104.707 35.311 104.725 35.116 104.743 34.942H104.707L104.248 36.364L103.141 39.415H102.592L101.485 36.364L101.026 34.942H100.99C101.008 35.116 101.023 35.311 101.035 35.527C101.053 35.737 101.068 35.95 101.08 36.166C101.092 36.382 101.098 36.577 101.098 36.751V40H100.414ZM109.203 40V34.096H110.886C111.33 34.096 111.717 34.153 112.047 34.267C112.377 34.375 112.635 34.555 112.821 34.807C113.007 35.059 113.1 35.401 113.1 35.833C113.1 36.247 113.007 36.589 112.821 36.859C112.641 37.123 112.386 37.324 112.056 37.462C111.732 37.594 111.354 37.66 110.922 37.66H109.95V40H109.203ZM109.95 37.048H110.832C111.348 37.048 111.729 36.949 111.975 36.751C112.227 36.553 112.353 36.247 112.353 35.833C112.353 35.407 112.221 35.113 111.957 34.951C111.699 34.783 111.312 34.699 110.796 34.699H109.95V37.048ZM118.729 40.108C118.237 40.108 117.799 39.982 117.415 39.73C117.037 39.478 116.74 39.121 116.524 38.659C116.314 38.197 116.209 37.651 116.209 37.021C116.209 36.391 116.314 35.851 116.524 35.401C116.74 34.945 117.037 34.597 117.415 34.357C117.799 34.111 118.237 33.988 118.729 33.988C119.227 33.988 119.665 34.111 120.043 34.357C120.421 34.597 120.718 34.945 120.934 35.401C121.15 35.851 121.258 36.391 121.258 37.021C121.258 37.651 121.15 38.197 120.934 38.659C120.718 39.121 120.421 39.478 120.043 39.73C119.665 39.982 119.227 40.108 118.729 40.108ZM118.729 39.442C119.083 39.442 119.389 39.343 119.647 39.145C119.911 38.947 120.115 38.668 120.259 38.308C120.403 37.942 120.475 37.513 120.475 37.021C120.475 36.535 120.403 36.115 120.259 35.761C120.115 35.407 119.911 35.134 119.647 34.942C119.389 34.744 119.083 34.645 118.729 34.645C118.381 34.645 118.075 34.744 117.811 34.942C117.547 35.134 117.343 35.407 117.199 35.761C117.055 36.115 116.983 36.535 116.983 37.021C116.983 37.513 117.055 37.942 117.199 38.308C117.343 38.668 117.547 38.947 117.811 39.145C118.075 39.343 118.381 39.442 118.729 39.442ZM128.829 40V34.096H130.674C131.076 34.096 131.433 34.15 131.745 34.258C132.057 34.36 132.3 34.534 132.474 34.78C132.654 35.02 132.744 35.344 132.744 35.752C132.744 36.148 132.654 36.475 132.474 36.733C132.3 36.991 132.057 37.186 131.745 37.318C131.433 37.444 131.076 37.507 130.674 37.507H129.576V40H128.829ZM129.576 36.895H130.566C131.028 36.895 131.382 36.802 131.628 36.616C131.874 36.424 131.997 36.136 131.997 35.752C131.997 35.368 131.874 35.098 131.628 34.942C131.382 34.78 131.028 34.699 130.566 34.699H129.576V36.895ZM132.069 40L130.53 37.3L131.115 36.904L132.915 40H132.069ZM136.203 40V34.096H139.605V34.726H136.95V36.58H139.191V37.219H136.95V39.361H139.695V40H136.203ZM142.417 40L144.415 34.096H145.261L147.259 40H146.467L145.432 36.697C145.324 36.367 145.222 36.04 145.126 35.716C145.03 35.386 144.934 35.05 144.838 34.708H144.802C144.712 35.05 144.619 35.386 144.523 35.716C144.427 36.04 144.325 36.367 144.217 36.697L143.173 40H142.417ZM143.461 38.2V37.606H146.188V38.2H143.461ZM150.336 40V34.096H151.083V39.361H153.666V40H150.336Z" fill="#9CA3AF"/>
</svg>
