<svg width="112" height="15" viewBox="0 0 112 15" fill="none" xmlns="http://www.w3.org/2000/svg">
<path d="M2.45869e-06 0.279941C0.386669 0.293274 0.893336 0.306608 1.52 0.319941C2.16 0.333274 2.8 0.339941 3.44 0.339941C4.10667 0.339941 4.74667 0.333274 5.36 0.319941C5.97334 0.306608 6.40667 0.299941 6.66 0.299941C8.68667 0.299941 10.1933 0.666608 11.18 1.39994C12.18 2.13327 12.68 3.07994 12.68 4.23994C12.68 4.71994 12.58 5.22661 12.38 5.75994C12.18 6.27994 11.84 6.76661 11.36 7.21994C10.88 7.65994 10.22 8.01994 9.38 8.29994C8.55334 8.57994 7.5 8.71994 6.22 8.71994H4.1V8.31994H6.02C6.7 8.31994 7.21334 8.13994 7.56 7.77994C7.92 7.41994 8.16 6.94661 8.28 6.35994C8.41334 5.77327 8.48 5.13994 8.48 4.45994C8.48 3.19327 8.33334 2.24661 8.04 1.61994C7.76 0.993274 7.26667 0.679941 6.56 0.679941C6.10667 0.679941 5.81334 0.793274 5.68 1.01994C5.54667 1.24661 5.48 1.70661 5.48 2.39994V12.1199C5.48 12.6666 5.53334 13.0733 5.64 13.3399C5.76 13.6066 5.98 13.7799 6.3 13.8599C6.62 13.9399 7.08667 13.9799 7.7 13.9799V14.4399C7.24667 14.4266 6.65334 14.4133 5.92 14.3999C5.18667 14.3866 4.40667 14.3799 3.58 14.3799C2.96667 14.3799 2.35334 14.3866 1.74 14.3999C1.12667 14.4133 0.546669 14.4266 2.45869e-06 14.4399V14.0399C0.413336 14.0133 0.720003 13.9599 0.920002 13.8799C1.12 13.7999 1.25334 13.6399 1.32 13.3999C1.38667 13.1599 1.42 12.7999 1.42 12.3199V2.39994C1.42 1.90661 1.38667 1.54661 1.32 1.31994C1.25334 1.07994 1.11334 0.919941 0.900003 0.839941C0.700003 0.746608 0.400002 0.693274 2.45869e-06 0.679941V0.279941ZM21.2747 -5.98431e-05C22.7814 -5.98431e-05 24.1014 0.286607 25.2347 0.859941C26.368 1.43327 27.248 2.25994 27.8747 3.33994C28.5014 4.40661 28.8147 5.70661 28.8147 7.23994C28.8147 8.73327 28.4947 10.0399 27.8547 11.1599C27.2147 12.2799 26.3214 13.1533 25.1747 13.7799C24.0414 14.4066 22.7347 14.7199 21.2547 14.7199C19.748 14.7199 18.428 14.4333 17.2947 13.8599C16.1614 13.2866 15.2814 12.4599 14.6547 11.3799C14.028 10.2999 13.7147 8.99994 13.7147 7.47994C13.7147 5.98661 14.0347 4.67994 14.6747 3.55994C15.328 2.43994 16.2214 1.56661 17.3547 0.939941C18.488 0.313274 19.7947 -5.98431e-05 21.2747 -5.98431e-05ZM21.1947 0.35994C20.528 0.35994 19.948 0.65994 19.4547 1.25994C18.9614 1.85994 18.5814 2.68661 18.3147 3.73994C18.048 4.79327 17.9147 6.01327 17.9147 7.39994C17.9147 8.81327 18.068 10.0466 18.3747 11.0999C18.6814 12.1399 19.0947 12.9466 19.6147 13.5199C20.1347 14.0799 20.708 14.3599 21.3347 14.3599C22.0014 14.3599 22.5814 14.0599 23.0747 13.4599C23.568 12.8599 23.948 12.0333 24.2147 10.9799C24.4814 9.91327 24.6147 8.69327 24.6147 7.31994C24.6147 5.89327 24.4614 4.65994 24.1547 3.61994C23.848 2.57994 23.4347 1.77994 22.9147 1.21994C22.3947 0.646607 21.8214 0.35994 21.1947 0.35994ZM29.9414 0.279941C30.3281 0.293274 30.8347 0.306608 31.4614 0.319941C32.1014 0.333274 32.7414 0.339941 33.3814 0.339941C34.0481 0.339941 34.6881 0.333274 35.3014 0.319941C35.9147 0.306608 36.3481 0.299941 36.6014 0.299941C37.9614 0.299941 39.0814 0.426608 39.9614 0.679941C40.8547 0.933274 41.5214 1.31994 41.9614 1.83994C42.4014 2.34661 42.6214 2.99327 42.6214 3.77994C42.6214 4.27327 42.5214 4.75327 42.3214 5.21994C42.1214 5.68661 41.7814 6.11327 41.3014 6.49994C40.8214 6.87327 40.1614 7.17327 39.3214 7.39994C38.4947 7.61327 37.4414 7.71994 36.1614 7.71994H34.2414V7.31994H35.9614C36.6414 7.31994 37.1547 7.17327 37.5014 6.87994C37.8614 6.57327 38.1014 6.17327 38.2214 5.67994C38.3547 5.17327 38.4214 4.61327 38.4214 3.99994C38.4214 2.94661 38.2747 2.13327 37.9814 1.55994C37.7014 0.973274 37.2081 0.679941 36.5014 0.679941C36.0481 0.679941 35.7547 0.793274 35.6214 1.01994C35.4881 1.24661 35.4214 1.70661 35.4214 2.39994V12.3199C35.4214 12.7999 35.4547 13.1599 35.5214 13.3999C35.6014 13.6399 35.7414 13.7999 35.9414 13.8799C36.1414 13.9599 36.4414 14.0133 36.8414 14.0399V14.4399C36.4547 14.4133 35.9547 14.3999 35.3414 14.3999C34.7414 14.3866 34.1281 14.3799 33.5014 14.3799C32.7814 14.3799 32.1014 14.3866 31.4614 14.3999C30.8347 14.3999 30.3281 14.4133 29.9414 14.4399V14.0399C30.3547 14.0133 30.6614 13.9599 30.8614 13.8799C31.0614 13.7999 31.1947 13.6399 31.2614 13.3999C31.3281 13.1599 31.3614 12.7999 31.3614 12.3199V2.39994C31.3614 1.90661 31.3281 1.54661 31.2614 1.31994C31.1947 1.07994 31.0547 0.919941 30.8414 0.839941C30.6414 0.746608 30.3414 0.693274 29.9414 0.679941V0.279941ZM34.1214 7.37994C34.6014 7.39327 35.0547 7.41994 35.4814 7.45994C35.9081 7.49994 36.3014 7.53994 36.6614 7.57994C37.0214 7.60661 37.3281 7.62661 37.5814 7.63994C39.0081 7.70661 40.0747 7.95327 40.7814 8.37994C41.5014 8.80661 41.9414 9.43327 42.1014 10.2599L42.5214 12.3399C42.6281 12.8333 42.7481 13.1733 42.8814 13.3599C43.0147 13.5466 43.1947 13.6399 43.4214 13.6399C43.5547 13.6399 43.6681 13.6199 43.7614 13.5799C43.8547 13.5399 43.9481 13.4733 44.0414 13.3799L44.3014 13.6399C43.8881 14.0533 43.4347 14.3333 42.9414 14.4799C42.4614 14.6399 41.9147 14.7199 41.3014 14.7199C40.4347 14.7199 39.7347 14.5666 39.2014 14.2599C38.6681 13.9399 38.3414 13.3733 38.2214 12.5599L37.9214 10.5599C37.8414 10.0133 37.7414 9.52661 37.6214 9.09994C37.5014 8.67327 37.3414 8.33994 37.1414 8.09994C36.9414 7.84661 36.6681 7.71994 36.3214 7.71994H34.1614L34.1214 7.37994ZM57.3155 0.279941C57.2621 1.06661 57.2221 1.82661 57.1955 2.55994C57.1821 3.29327 57.1755 3.85327 57.1755 4.23994C57.1755 4.51994 57.1821 4.78661 57.1955 5.03994C57.2088 5.29327 57.2221 5.50661 57.2355 5.67994H56.7755C56.4688 4.42661 56.0955 3.43994 55.6555 2.71994C55.2288 1.99994 54.7688 1.49327 54.2755 1.19994C53.7955 0.893274 53.3155 0.73994 52.8355 0.73994H52.8155V12.1799C52.8155 12.7266 52.8688 13.1333 52.9755 13.3999C53.0955 13.6666 53.3155 13.8399 53.6355 13.9199C53.9555 13.9999 54.4221 14.0399 55.0355 14.0399V14.4399C54.5688 14.4266 53.9355 14.4133 53.1355 14.3999C52.3488 14.3866 51.5221 14.3799 50.6555 14.3799C49.8288 14.3799 49.0488 14.3866 48.3155 14.3999C47.5821 14.4133 46.9888 14.4266 46.5355 14.4399V14.0399C47.1488 14.0399 47.6155 13.9999 47.9355 13.9199C48.2555 13.8399 48.4688 13.6666 48.5755 13.3999C48.6955 13.1333 48.7555 12.7266 48.7555 12.1799V0.73994H48.7355C48.2555 0.73994 47.7688 0.893274 47.2755 1.19994C46.7955 1.49327 46.3421 1.99994 45.9155 2.71994C45.4888 3.42661 45.1155 4.41327 44.7955 5.67994H44.3355C44.3621 5.50661 44.3755 5.29327 44.3755 5.03994C44.3888 4.78661 44.3955 4.51994 44.3955 4.23994C44.3955 3.85327 44.3821 3.29327 44.3555 2.55994C44.3421 1.82661 44.3088 1.06661 44.2555 0.279941C44.8955 0.293274 45.6021 0.306608 46.3755 0.319941C47.1488 0.333274 47.9221 0.339941 48.6955 0.339941C49.4688 0.339941 50.1688 0.339941 50.7955 0.339941C51.4221 0.339941 52.1221 0.339941 52.8955 0.339941C53.6688 0.339941 54.4421 0.333274 55.2155 0.319941C55.9888 0.306608 56.6888 0.293274 57.3155 0.279941ZM64.4508 0.279941L69.2908 12.7599C69.4775 13.2133 69.6775 13.5399 69.8908 13.7399C70.1041 13.9266 70.2975 14.0266 70.4708 14.0399V14.4399C69.9908 14.4133 69.4308 14.3999 68.7908 14.3999C68.1508 14.3866 67.4975 14.3799 66.8308 14.3799C66.1508 14.3799 65.5108 14.3866 64.9108 14.3999C64.3108 14.3999 63.8308 14.4133 63.4708 14.4399V14.0399C64.1508 14.0133 64.5775 13.8999 64.7508 13.6999C64.9375 13.4866 64.8975 13.0399 64.6308 12.3599L61.4308 3.49994L61.8308 2.79994L59.0708 9.97994C58.7375 10.8466 58.5308 11.5466 58.4508 12.0799C58.3841 12.5999 58.4175 12.9999 58.5508 13.2799C58.6841 13.5599 58.8975 13.7533 59.1908 13.8599C59.4841 13.9666 59.8308 14.0266 60.2308 14.0399V14.4399C59.7375 14.4133 59.2908 14.3999 58.8908 14.3999C58.5041 14.3866 58.0775 14.3799 57.6108 14.3799C57.3575 14.3799 57.0841 14.3866 56.7908 14.3999C56.5108 14.3999 56.2708 14.4133 56.0708 14.4399V14.0399C56.3775 13.9866 56.6775 13.7933 56.9708 13.4599C57.2775 13.1133 57.5908 12.5266 57.9108 11.6999L62.3508 0.279941C62.6708 0.306608 63.0175 0.319941 63.3908 0.319941C63.7775 0.319941 64.1308 0.306608 64.4508 0.279941ZM65.1508 8.67994V9.07994H59.1908L59.3908 8.67994H65.1508ZM77.6078 0.279941V0.679941C77.1545 0.693274 76.8078 0.746608 76.5678 0.839941C76.3411 0.919941 76.1878 1.07994 76.1078 1.31994C76.0278 1.54661 75.9878 1.90661 75.9878 2.39994V12.7199C75.9878 13.0799 76.0145 13.3533 76.0678 13.5399C76.1211 13.7133 76.2211 13.8333 76.3678 13.8999C76.5145 13.9533 76.7278 13.9799 77.0078 13.9799H77.6678C78.0145 13.9799 78.3878 13.8466 78.7878 13.5799C79.1878 13.3133 79.5745 12.9466 79.9478 12.4799C80.3345 12.0133 80.6678 11.4866 80.9478 10.8999C81.2278 10.2999 81.4278 9.67994 81.5478 9.03994H82.0078C81.9678 9.51994 81.9478 10.1333 81.9478 10.8799C81.9478 11.2266 81.9545 11.7333 81.9678 12.3999C81.9811 13.0533 82.0211 13.7333 82.0878 14.4399C81.4078 14.4133 80.6411 14.3999 79.7878 14.3999C78.9345 14.3866 78.1745 14.3799 77.5078 14.3799C77.1478 14.3799 76.6878 14.3799 76.1278 14.3799C75.5811 14.3799 74.9811 14.3866 74.3278 14.3999C73.6878 14.3999 73.0345 14.4066 72.3678 14.4199C71.7145 14.4199 71.0945 14.4266 70.5078 14.4399V14.0399C70.9211 14.0133 71.2278 13.9599 71.4278 13.8799C71.6278 13.7999 71.7611 13.6399 71.8278 13.3999C71.8945 13.1599 71.9278 12.7999 71.9278 12.3199V2.39994C71.9278 1.90661 71.8945 1.54661 71.8278 1.31994C71.7611 1.07994 71.6211 0.919941 71.4078 0.839941C71.2078 0.746608 70.9078 0.693274 70.5078 0.679941V0.279941C70.8945 0.293274 71.4011 0.306608 72.0278 0.319941C72.6678 0.333274 73.3478 0.339941 74.0678 0.339941C74.7345 0.339941 75.3878 0.333274 76.0278 0.319941C76.6678 0.306608 77.1945 0.293274 77.6078 0.279941Z" fill="white"/>
<path d="M83.0273 0.279941C83.414 0.293274 83.9207 0.306608 84.5473 0.319941C85.1873 0.333274 85.8273 0.339941 86.4673 0.339941C87.134 0.339941 87.774 0.333274 88.3873 0.319941C89.0007 0.306608 89.434 0.299941 89.6873 0.299941C91.514 0.299941 92.874 0.593274 93.7673 1.17994C94.6607 1.76661 95.1073 2.51994 95.1073 3.43994C95.1073 3.90661 94.9407 4.39327 94.6073 4.89994C94.274 5.39327 93.7673 5.83327 93.0873 6.21994C92.4073 6.59327 91.5407 6.84661 90.4873 6.97994V7.01994C91.8607 7.08661 92.9607 7.29994 93.7873 7.65994C94.614 8.01994 95.214 8.45994 95.5873 8.97994C95.9607 9.48661 96.1473 10.0133 96.1473 10.5599C96.1473 11.4533 95.9073 12.1866 95.4273 12.7599C94.9473 13.3333 94.254 13.7599 93.3473 14.0399C92.454 14.3066 91.3873 14.4399 90.1473 14.4399C89.8273 14.4399 89.354 14.4333 88.7273 14.4199C88.114 14.3933 87.374 14.3799 86.5073 14.3799C85.8407 14.3799 85.1873 14.3866 84.5473 14.3999C83.9207 14.3999 83.414 14.4133 83.0273 14.4399V14.0399C83.4407 14.0133 83.7473 13.9599 83.9473 13.8799C84.1473 13.7999 84.2807 13.6399 84.3473 13.3999C84.414 13.1599 84.4473 12.7999 84.4473 12.3199V2.39994C84.4473 1.90661 84.414 1.54661 84.3473 1.31994C84.2807 1.07994 84.1407 0.919941 83.9273 0.839941C83.7273 0.746608 83.4273 0.693274 83.0273 0.679941V0.279941ZM89.5873 0.679941C89.134 0.679941 88.8407 0.793274 88.7073 1.01994C88.574 1.24661 88.5073 1.70661 88.5073 2.39994V12.3199C88.5073 12.7866 88.5407 13.1399 88.6073 13.3799C88.674 13.6199 88.8007 13.7799 88.9873 13.8599C89.174 13.9399 89.4473 13.9799 89.8073 13.9799C90.554 13.9799 91.094 13.6799 91.4273 13.0799C91.774 12.4666 91.9473 11.5999 91.9473 10.4799C91.9473 9.45327 91.7007 8.65994 91.2073 8.09994C90.7273 7.53994 89.9207 7.25994 88.7873 7.25994H87.3273C87.3273 7.25994 87.3273 7.20661 87.3273 7.09994C87.3273 6.97994 87.3273 6.91994 87.3273 6.91994H89.0473C89.5673 6.91994 89.9673 6.77327 90.2473 6.47994C90.5273 6.17327 90.7207 5.77327 90.8273 5.27994C90.934 4.77327 90.9873 4.23327 90.9873 3.65994C90.9873 2.67327 90.8807 1.93327 90.6673 1.43994C90.454 0.933274 90.094 0.679941 89.5873 0.679941ZM97.1094 0.279941C97.496 0.293274 98.0027 0.306608 98.6294 0.319941C99.2694 0.333274 99.9094 0.339941 100.549 0.339941C101.216 0.339941 101.856 0.333274 102.469 0.319941C103.083 0.306608 103.516 0.299941 103.769 0.299941C105.129 0.299941 106.249 0.426608 107.129 0.679941C108.023 0.933274 108.689 1.31994 109.129 1.83994C109.569 2.34661 109.789 2.99327 109.789 3.77994C109.789 4.27327 109.689 4.75327 109.489 5.21994C109.289 5.68661 108.949 6.11327 108.469 6.49994C107.989 6.87327 107.329 7.17327 106.489 7.39994C105.663 7.61327 104.609 7.71994 103.329 7.71994H101.409V7.31994H103.129C103.809 7.31994 104.323 7.17327 104.669 6.87994C105.029 6.57327 105.269 6.17327 105.389 5.67994C105.523 5.17327 105.589 4.61327 105.589 3.99994C105.589 2.94661 105.443 2.13327 105.149 1.55994C104.869 0.973274 104.376 0.679941 103.669 0.679941C103.216 0.679941 102.923 0.793274 102.789 1.01994C102.656 1.24661 102.589 1.70661 102.589 2.39994V12.3199C102.589 12.7999 102.623 13.1599 102.689 13.3999C102.769 13.6399 102.909 13.7999 103.109 13.8799C103.309 13.9599 103.609 14.0133 104.009 14.0399V14.4399C103.623 14.4133 103.123 14.3999 102.509 14.3999C101.909 14.3866 101.296 14.3799 100.669 14.3799C99.9494 14.3799 99.2694 14.3866 98.6294 14.3999C98.0027 14.3999 97.496 14.4133 97.1094 14.4399V14.0399C97.5227 14.0133 97.8294 13.9599 98.0294 13.8799C98.2294 13.7999 98.3627 13.6399 98.4294 13.3999C98.496 13.1599 98.5294 12.7999 98.5294 12.3199V2.39994C98.5294 1.90661 98.496 1.54661 98.4294 1.31994C98.3627 1.07994 98.2227 0.919941 98.0094 0.839941C97.8094 0.746608 97.5094 0.693274 97.1094 0.679941V0.279941ZM101.289 7.37994C101.769 7.39327 102.223 7.41994 102.649 7.45994C103.076 7.49994 103.469 7.53994 103.829 7.57994C104.189 7.60661 104.496 7.62661 104.749 7.63994C106.176 7.70661 107.243 7.95327 107.949 8.37994C108.669 8.80661 109.109 9.43327 109.269 10.2599L109.689 12.3399C109.796 12.8333 109.916 13.1733 110.049 13.3599C110.183 13.5466 110.363 13.6399 110.589 13.6399C110.723 13.6399 110.836 13.6199 110.929 13.5799C111.023 13.5399 111.116 13.4733 111.209 13.3799L111.469 13.6399C111.056 14.0533 110.603 14.3333 110.109 14.4799C109.629 14.6399 109.083 14.7199 108.469 14.7199C107.603 14.7199 106.903 14.5666 106.369 14.2599C105.836 13.9399 105.509 13.3733 105.389 12.5599L105.089 10.5599C105.009 10.0133 104.909 9.52661 104.789 9.09994C104.669 8.67327 104.509 8.33994 104.309 8.09994C104.109 7.84661 103.836 7.71994 103.489 7.71994H101.329L101.289 7.37994Z" fill="#E63329"/>
</svg>
